{"asset":{"version":"2.0","generator":"Blockbench 5.0.7 glTF exporter"},"scenes":[{"nodes":[19],"name":"blockbench_export"}],"scene":0,"nodes":[{"rotation":[0.02184234901901196,0.005977398809914146,-0.003334348052667696,0.9997379979854034],"translation":[0,0.6875,-0.03125],"name":"body","mesh":0},{"rotation":[-0.08713279284134572,0.0017815038661176384,-0.0009125019907697884,0.9961946948241388],"translation":[0,0.5,0.5625],"name":"tail","mesh":1},{"translation":[0.03125,0,-0.15625],"name":"head","mesh":2},{"rotation":[-0.46174861323503386,0,0,0.8870108331782217],"translation":[0,-0.0625,0.078125],"name":"neck","mesh":3},{"rotation":[-0.08845396323844533,-0.10689184409912653,-0.4515501302048855,0.8813923700398426],"translation":[-0.3125,0.140625,-0.078125],"name":"mesh","mesh":4},{"rotation":[-0.08845396323844533,0.10689184409912653,0.4515501302048855,0.8813923700398426],"translation":[0.3125,0.140625,-0.078125],"name":"mesh","mesh":5},{"translation":[0,0.9375,-0.5],"name":"head","children":[2,3,4,5]},{"translation":[0,-0.6875,-0.03125],"name":"low","mesh":6},{"translation":[0,-0.1875,-0.03125],"name":"high","mesh":7},{"translation":[-0.21875,0.6875,-0.3125],"name":"leg_fl","children":[7,8]},{"translation":[0,0,-0.03125],"name":"low","mesh":8},{"translation":[0,-0.1875,-0.03125],"name":"high","mesh":9},{"translation":[0.21875,0.6875,-0.3125],"name":"leg_fr","children":[10,11]},{"translation":[-0.40625,0,-0.34375],"name":"low","mesh":10},{"translation":[-0.40625,0.5,-0.40625],"name":"high","mesh":11},{"translation":[0.625,0,0.6875],"name":"leg_br","children":[13,14]},{"translation":[-0.28125,0,-0.34375],"name":"low","mesh":12},{"translation":[-0.28125,0.5,-0.40625],"name":"high","mesh":13},{"translation":[0.0625,0,0.6875],"name":"leg_bl","children":[16,17]},{"name":"root","children":[0,1,6,9,12,15,18]}],"bufferViews":[{"buffer":0,"byteOffset":0,"byteLength":288,"target":34962,"byteStride":12},{"buffer":0,"byteOffset":288,"byteLength":288,"target":34962,"byteStride":12},{"buffer":0,"byteOffset":576,"byteLength":192,"target":34962,"byteStride":8},{"buffer":0,"byteOffset":768,"byteLength":72,"target":34963},{"buffer":0,"byteOffset":840,"byteLength":288,"target":34962,"byteStride":12},{"buffer":0,"byteOffset":1128,"byteLength":288,"target":34962,"byteStride":12},{"buffer":0,"byteOffset":1416,"byteLength":192,"target":34962,"byteStride":8},{"buffer":0,"byteOffset":1608,"byteLength":72,"target":34963},{"buffer":0,"byteOffset":1680,"byteLength":696,"target":34962,"byteStride":12},{"buffer":0,"byteOffset":2376,"byteLength":696,"target":34962,"byteStride":12},{"buffer":0,"byteOffset":3072,"byteLength":464,"target":34962,"byteStride":8},{"buffer":0,"byteOffset":3536,"byteLength":168,"target":34963},{"buffer":0,"byteOffset":3704,"byteLength":288,"target":34962,"byteStride":12},{"buffer":0,"byteOffset":3992,"byteLength":288,"target":34962,"byteStride":12},{"buffer":0,"byteOffset":4280,"byteLength":192,"target":34962,"byteStride":8},{"buffer":0,"byteOffset":4472,"byteLength":72,"target":34963},{"buffer":0,"byteOffset":4544,"byteLength":288,"target":34962,"byteStride":12},{"buffer":0,"byteOffset":4832,"byteLength":288,"target":34962,"byteStride":12},{"buffer":0,"byteOffset":5120,"byteLength":192,"target":34962,"byteStride":8},{"buffer":0,"byteOffset":5312,"byteLength":72,"target":34963},{"buffer":0,"byteOffset":5384,"byteLength":288,"target":34962,"byteStride":12},{"buffer":0,"byteOffset":5672,"byteLength":288,"target":34962,"byteStride":12},{"buffer":0,"byteOffset":5960,"byteLength":192,"target":34962,"byteStride":8},{"buffer":0,"byteOffset":6152,"byteLength":72,"target":34963},{"buffer":0,"byteOffset":6224,"byteLength":288,"target":34962,"byteStride":12},{"buffer":0,"byteOffset":6512,"byteLength":288,"target":34962,"byteStride":12},{"buffer":0,"byteOffset":6800,"byteLength":192,"target":34962,"byteStride":8},{"buffer":0,"byteOffset":6992,"byteLength":72,"target":34963},{"buffer":0,"byteOffset":7064,"byteLength":288,"target":34962,"byteStride":12},{"buffer":0,"byteOffset":7352,"byteLength":288,"target":34962,"byteStride":12},{"buffer":0,"byteOffset":7640,"byteLength":192,"target":34962,"byteStride":8},{"buffer":0,"byteOffset":7832,"byteLength":72,"target":34963},{"buffer":0,"byteOffset":7904,"byteLength":288,"target":34962,"byteStride":12},{"buffer":0,"byteOffset":8192,"byteLength":288,"target":34962,"byteStride":12},{"buffer":0,"byteOffset":8480,"byteLength":192,"target":34962,"byteStride":8},{"buffer":0,"byteOffset":8672,"byteLength":72,"target":34963},{"buffer":0,"byteOffset":8744,"byteLength":288,"target":34962,"byteStride":12},{"buffer":0,"byteOffset":9032,"byteLength":288,"target":34962,"byteStride":12},{"buffer":0,"byteOffset":9320,"byteLength":192,"target":34962,"byteStride":8},{"buffer":0,"byteOffset":9512,"byteLength":72,"target":34963},{"buffer":0,"byteOffset":9584,"byteLength":288,"target":34962,"byteStride":12},{"buffer":0,"byteOffset":9872,"byteLength":288,"target":34962,"byteStride":12},{"buffer":0,"byteOffset":10160,"byteLength":192,"target":34962,"byteStride":8},{"buffer":0,"byteOffset":10352,"byteLength":72,"target":34963},{"buffer":0,"byteOffset":10424,"byteLength":288,"target":34962,"byteStride":12},{"buffer":0,"byteOffset":10712,"byteLength":288,"target":34962,"byteStride":12},{"buffer":0,"byteOffset":11000,"byteLength":192,"target":34962,"byteStride":8},{"buffer":0,"byteOffset":11192,"byteLength":72,"target":34963},{"buffer":0,"byteOffset":11264,"byteLength":288,"target":34962,"byteStride":12},{"buffer":0,"byteOffset":11552,"byteLength":288,"target":34962,"byteStride":12},{"buffer":0,"byteOffset":11840,"byteLength":192,"target":34962,"byteStride":8},{"buffer":0,"byteOffset":12032,"byteLength":72,"target":34963},{"buffer":0,"byteOffset":12104,"byteLength":288,"target":34962,"byteStride":12},{"buffer":0,"byteOffset":12392,"byteLength":288,"target":34962,"byteStride":12},{"buffer":0,"byteOffset":12680,"byteLength":192,"target":34962,"byteStride":8},{"buffer":0,"byteOffset":12872,"byteLength":72,"target":34963},{"buffer":0,"byteOffset":12944,"byteLength":12},{"buffer":0,"byteOffset":12956,"byteLength":48},{"buffer":0,"byteOffset":13004,"byteLength":12},{"buffer":0,"byteOffset":13016,"byteLength":36},{"buffer":0,"byteOffset":13052,"byteLength":12},{"buffer":0,"byteOffset":13064,"byteLength":36},{"buffer":0,"byteOffset":13100,"byteLength":12},{"buffer":0,"byteOffset":13112,"byteLength":48},{"buffer":0,"byteOffset":13160,"byteLength":8},{"buffer":0,"byteOffset":13168,"byteLength":24},{"buffer":0,"byteOffset":13192,"byteLength":8},{"buffer":0,"byteOffset":13200,"byteLength":24},{"buffer":0,"byteOffset":13224,"byteLength":28},{"buffer":0,"byteOffset":13252,"byteLength":112},{"buffer":0,"byteOffset":13364,"byteLength":8},{"buffer":0,"byteOffset":13372,"byteLength":24},{"buffer":0,"byteOffset":13396,"byteLength":8},{"buffer":0,"byteOffset":13404,"byteLength":24}],"buffers":[{"byteLength":13428,"uri":"data:application/octet-stream;base64,"}],"accessors":[{"bufferView":0,"componentType":5126,"count":24,"max":[0.37575626373291016,0.5,0.5000643730163574],"min":[-0.375,-0.002726875012740493,-0.5],"type":"VEC3"},{"bufferView":1,"componentType":5126,"count":24,"max":[0.9999997019767761,0.9999963045120239,1],"min":[-0.9999997019767761,-0.9999963045120239,-1],"type":"VEC3"},{"bufferView":2,"componentType":5126,"count":24,"max":[0.53125,0.5159821510314941],"min":[0,0],"type":"VEC2"},{"bufferView":3,"componentType":5123,"count":36,"max":[23],"min":[0],"type":"SCALAR"},{"bufferView":4,"componentType":5126,"count":24,"max":[0.0625,0.5,0.0625],"min":[-0.0625,-0.125,-0.0625],"type":"VEC3"},{"bufferView":5,"componentType":5126,"count":24,"max":[1,1,1],"min":[-1,-1,-1],"type":"VEC3"},{"bufferView":6,"componentType":5126,"count":24,"max":[0.796875,0.921875],"min":[0.078125,0.328125],"type":"VEC2"},{"bufferView":7,"componentType":5123,"count":36,"max":[23],"min":[0],"type":"SCALAR"},{"bufferView":8,"componentType":5126,"count":58,"max":[0.1875,0.375,0.1875],"min":[-0.25,0,-0.3125],"type":"VEC3"},{"bufferView":9,"componentType":5126,"count":58,"max":[1,1,1],"min":[-1,-1,-1],"type":"VEC3"},{"bufferView":10,"componentType":5126,"count":58,"max":[0.953125,0.84375],"min":[0,0],"type":"VEC2"},{"bufferView":11,"componentType":5123,"count":84,"max":[57],"min":[0],"type":"SCALAR"},{"bufferView":12,"componentType":5126,"count":24,"max":[0.09375,0.25,0.09375],"min":[-0.09375,-0.0625,-0.09375],"type":"VEC3"},{"bufferView":13,"componentType":5126,"count":24,"max":[1,1,1],"min":[-1,-1,-1],"type":"VEC3"},{"bufferView":14,"componentType":5126,"count":24,"max":[0.9375,0.96875],"min":[0,0],"type":"VEC2"},{"bufferView":15,"componentType":5123,"count":36,"max":[23],"min":[0],"type":"SCALAR"},{"bufferView":16,"componentType":5126,"count":24,"max":[0.03125,0.25,0.03125],"min":[-0.09375,0,-0.03125],"type":"VEC3"},{"bufferView":17,"componentType":5126,"count":24,"max":[1,1,1],"min":[-1,-1,-1],"type":"VEC3"},{"bufferView":18,"componentType":5126,"count":24,"max":[0.640625,0.859375],"min":[0.5,0],"type":"VEC2"},{"bufferView":19,"componentType":5123,"count":36,"max":[23],"min":[0],"type":"SCALAR"},{"bufferView":20,"componentType":5126,"count":24,"max":[0.09375,0.25,0.03125],"min":[-0.03125,0,-0.03125],"type":"VEC3"},{"bufferView":21,"componentType":5126,"count":24,"max":[1,1,1],"min":[-1,-1,-1],"type":"VEC3"},{"bufferView":22,"componentType":5126,"count":24,"max":[0.765625,0.9375],"min":[0,0.578125],"type":"VEC2"},{"bufferView":23,"componentType":5123,"count":36,"max":[23],"min":[0],"type":"SCALAR"},{"bufferView":24,"componentType":5126,"count":24,"max":[0.125,0.5,0.125],"min":[-0.125,0,-0.125],"type":"VEC3"},{"bufferView":25,"componentType":5126,"count":24,"max":[1,1,1],"min":[-1,-1,-1],"type":"VEC3"},{"bufferView":26,"componentType":5126,"count":24,"max":[0.828125,0.671875],"min":[0,0.09375],"type":"VEC2"},{"bufferView":27,"componentType":5123,"count":36,"max":[23],"min":[0],"type":"SCALAR"},{"bufferView":28,"componentType":5126,"count":24,"max":[0.125,0.3125,0.1875],"min":[-0.125,0,-0.125],"type":"VEC3"},{"bufferView":29,"componentType":5126,"count":24,"max":[1,1,1],"min":[-1,-1,-1],"type":"VEC3"},{"bufferView":30,"componentType":5126,"count":24,"max":[0.859375,0.890625],"min":[0,0.140625],"type":"VEC2"},{"bufferView":31,"componentType":5123,"count":36,"max":[23],"min":[0],"type":"SCALAR"},{"bufferView":32,"componentType":5126,"count":24,"max":[0.125,-0.1875,0.125],"min":[-0.125,-0.6875,-0.125],"type":"VEC3"},{"bufferView":33,"componentType":5126,"count":24,"max":[1,1,1],"min":[-1,-1,-1],"type":"VEC3"},{"bufferView":34,"componentType":5126,"count":24,"max":[0.875,0.71875],"min":[0.078125,0.09375],"type":"VEC2"},{"bufferView":35,"componentType":5123,"count":36,"max":[23],"min":[0],"type":"SCALAR"},{"bufferView":36,"componentType":5126,"count":24,"max":[0.125,0.3125,0.1875],"min":[-0.125,0,-0.125],"type":"VEC3"},{"bufferView":37,"componentType":5126,"count":24,"max":[1,1,1],"min":[-1,-1,-1],"type":"VEC3"},{"bufferView":38,"componentType":5126,"count":24,"max":[0.875,0.890625],"min":[0.078125,0],"type":"VEC2"},{"bufferView":39,"componentType":5123,"count":36,"max":[23],"min":[0],"type":"SCALAR"},{"bufferView":40,"componentType":5126,"count":24,"max":[0.125,0.5,0.125],"min":[-0.125,0,-0.125],"type":"VEC3"},{"bufferView":41,"componentType":5126,"count":24,"max":[1,1,1],"min":[-1,-1,-1],"type":"VEC3"},{"bufferView":42,"componentType":5126,"count":24,"max":[0.890625,0.71875],"min":[0.234375,0.09375],"type":"VEC2"},{"bufferView":43,"componentType":5123,"count":36,"max":[23],"min":[0],"type":"SCALAR"},{"bufferView":44,"componentType":5126,"count":24,"max":[0.125,0.25,0.125],"min":[-0.125,0,-0.25],"type":"VEC3"},{"bufferView":45,"componentType":5126,"count":24,"max":[1,1,1],"min":[-1,-1,-1],"type":"VEC3"},{"bufferView":46,"componentType":5126,"count":24,"max":[0.890625,0.890625],"min":[0,0],"type":"VEC2"},{"bufferView":47,"componentType":5123,"count":36,"max":[23],"min":[0],"type":"SCALAR"},{"bufferView":48,"componentType":5126,"count":24,"max":[0.125,0.5,0.125],"min":[-0.125,0,-0.125],"type":"VEC3"},{"bufferView":49,"componentType":5126,"count":24,"max":[1,1,1],"min":[-1,-1,-1],"type":"VEC3"},{"bufferView":50,"componentType":5126,"count":24,"max":[0.90625,0.90625],"min":[0.46875,0],"type":"VEC2"},{"bufferView":51,"componentType":5123,"count":36,"max":[23],"min":[0],"type":"SCALAR"},{"bufferView":52,"componentType":5126,"count":24,"max":[0.125,0.25,0.125],"min":[-0.125,0,-0.25],"type":"VEC3"},{"bufferView":53,"componentType":5126,"count":24,"max":[1,1,1],"min":[-1,-1,-1],"type":"VEC3"},{"bufferView":54,"componentType":5126,"count":24,"max":[0.9375,0.921875],"min":[0.109375,0.109375],"type":"VEC2"},{"bufferView":55,"componentType":5123,"count":36,"max":[23],"min":[0],"type":"SCALAR"},{"bufferView":56,"componentType":5126,"count":3,"max":[1],"min":[0],"type":"SCALAR"},{"bufferView":57,"componentType":5126,"count":3,"max":[0.237685889005661,0,0,1],"min":[0,0,0,0.9713420867919922],"type":"VEC4"},{"bufferView":58,"componentType":5126,"count":3,"max":[1],"min":[0],"type":"SCALAR"},{"bufferView":59,"componentType":5126,"count":3,"max":[-0.21875,0.6875,-0.3125],"min":[-0.21875,0.6875,-0.3125],"type":"VEC3"},{"bufferView":60,"componentType":5126,"count":3,"max":[1],"min":[0],"type":"SCALAR"},{"bufferView":61,"componentType":5126,"count":3,"max":[1,1,1],"min":[1,1,1],"type":"VEC3"},{"bufferView":62,"componentType":5126,"count":3,"max":[1],"min":[0],"type":"SCALAR"},{"bufferView":63,"componentType":5126,"count":3,"max":[0.237685889005661,0,0,1],"min":[0,0,0,0.9713420867919922],"type":"VEC4"},{"bufferView":64,"componentType":5126,"count":2,"max":[1],"min":[0],"type":"SCALAR"},{"bufferView":65,"componentType":5126,"count":2,"max":[0.21875,0.6875,-0.3125],"min":[0.21875,0.6875,-0.3125],"type":"VEC3"},{"bufferView":66,"componentType":5126,"count":2,"max":[1],"min":[0],"type":"SCALAR"},{"bufferView":67,"componentType":5126,"count":2,"max":[1,1,1],"min":[1,1,1],"type":"VEC3"},{"bufferView":68,"componentType":5126,"count":7,"max":[2],"min":[0],"type":"SCALAR"},{"bufferView":69,"componentType":5126,"count":7,"max":[0,0,0,1],"min":[-0.659345805644989,0,0,0.751839816570282],"type":"VEC4"},{"bufferView":70,"componentType":5126,"count":2,"max":[2],"min":[0],"type":"SCALAR"},{"bufferView":71,"componentType":5126,"count":2,"max":[0,0.9375,-0.5],"min":[0,0.9375,-0.5],"type":"VEC3"},{"bufferView":72,"componentType":5126,"count":2,"max":[2],"min":[0],"type":"SCALAR"},{"bufferView":73,"componentType":5126,"count":2,"max":[1,1,1],"min":[1,1,1],"type":"VEC3"}],"materials":[{"pbrMetallicRoughness":{"metallicFactor":0,"roughnessFactor":1,"baseColorTexture":{"index":0}},"alphaMode":"MASK","alphaCutoff":0.05,"doubleSided":true}],"textures":[{"sampler":0,"source":0,"name":"cow.png"}],"samplers":[{"magFilter":9728,"minFilter":9728,"wrapS":33071,"wrapT":33071}],"images":[{"mimeType":"image/png","uri":"data:image/png;base64,"}],"meshes":[{"primitives":[{"mode":4,"attributes":{"POSITION":0,"NORMAL":1,"TEXCOORD_0":2},"indices":3,"material":0}]},{"primitives":[{"mode":4,"attributes":{"POSITION":4,"NORMAL":5,"TEXCOORD_0":6},"indices":7,"material":0}]},{"primitives":[{"mode":4,"attributes":{"POSITION":8,"NORMAL":9,"TEXCOORD_0":10},"indices":11,"material":0}]},{"primitives":[{"mode":4,"attributes":{"POSITION":12,"NORMAL":13,"TEXCOORD_0":14},"indices":15,"material":0}]},{"primitives":[{"mode":4,"attributes":{"POSITION":16,"NORMAL":17,"TEXCOORD_0":18},"indices":19,"material":0}]},{"primitives":[{"mode":4,"attributes":{"POSITION":20,"NORMAL":21,"TEXCOORD_0":22},"indices":23,"material":0}]},{"primitives":[{"mode":4,"attributes":{"POSITION":24,"NORMAL":25,"TEXCOORD_0":26},"indices":27,"material":0}]},{"primitives":[{"mode":4,"attributes":{"POSITION":28,"NORMAL":29,"TEXCOORD_0":30},"indices":31,"material":0}]},{"primitives":[{"mode":4,"attributes":{"POSITION":32,"NORMAL":33,"TEXCOORD_0":34},"indices":35,"material":0}]},{"primitives":[{"mode":4,"attributes":{"POSITION":36,"NORMAL":37,"TEXCOORD_0":38},"indices":39,"material":0}]},{"primitives":[{"mode":4,"attributes":{"POSITION":40,"NORMAL":41,"TEXCOORD_0":42},"indices":43,"material":0}]},{"primitives":[{"mode":4,"attributes":{"POSITION":44,"NORMAL":45,"TEXCOORD_0":46},"indices":47,"material":0}]},{"primitives":[{"mode":4,"attributes":{"POSITION":48,"NORMAL":49,"TEXCOORD_0":50},"indices":51,"material":0}]},{"primitives":[{"mode":4,"attributes":{"POSITION":52,"NORMAL":53,"TEXCOORD_0":54},"indices":55,"material":0}]}],"animations":[{"name":"walk","samplers":[{"input":56,"output":57,"interpolation":"LINEAR"},{"input":58,"output":59,"interpolation":"LINEAR"},{"input":60,"output":61,"interpolation":"LINEAR"},{"input":62,"output":63,"interpolation":"LINEAR"},{"input":64,"output":65,"interpolation":"LINEAR"},{"input":66,"output":67,"interpolation":"LINEAR"}],"channels":[{"sampler":0,"target":{"node":9,"path":"rotation"}},{"sampler":1,"target":{"node":9,"path":"translation"}},{"sampler":2,"target":{"node":9,"path":"scale"}},{"sampler":3,"target":{"node":12,"path":"rotation"}},{"sampler":4,"target":{"node":12,"path":"translation"}},{"sampler":5,"target":{"node":12,"path":"scale"}}]},{"name":"graze","samplers":[{"input":68,"output":69,"interpolation":"LINEAR"},{"input":70,"output":71,"interpolation":"LINEAR"},{"input":72,"output":73,"interpolation":"LINEAR"}],"channels":[{"sampler":0,"target":{"node":6,"path":"rotation"}},{"sampler":1,"target":{"node":6,"path":"translation"}},{"sampler":2,"target":{"node":6,"path":"scale"}}]}]}